# This file uses centimeters as units for non-parametric coordinates.

mtllib arm1.mtl
g default
v -0.728584 0.308971 -0.264542
v -0.491357 0.334801 -0.140320
v -0.164185 0.319332 -0.211560
v -0.244781 0.247284 -0.913096
v -0.704976 0.256407 -0.798181
v -0.110042 0.274128 -0.612937
v -1.119357 1.698784 -1.488785
v -1.349511 1.942099 -0.695510
v -1.070505 2.032583 -0.226996
v -0.452732 2.191582 -0.256533
v -0.181202 1.923101 -0.888222
v -0.663620 1.957832 -1.424821
v -1.437107 3.060499 -0.720434
v -0.760460 3.182222 -0.567664
v -1.190520 3.050669 -0.499080
v -1.403368 3.057436 -1.343579
v -0.888634 3.093668 -1.459123
v -0.507638 2.815937 -0.949003
v -0.592285 2.798042 -0.531749
v -1.108557 2.614456 -0.487834
v -1.335559 2.475557 -0.712107
v -1.327519 2.665239 -1.309212
v -0.777025 2.815081 -1.354631
v -1.113974 3.054422 -1.573409
v -1.069788 2.706211 -1.457103
v -0.594757 3.165419 -0.988148
v -0.557163 0.232990 -1.010808
vt 0.817929 0.242188
vt 0.048036 0.260278
vt 0.742525 0.234511
vt 0.764009 0.236877
vt 0.088591 0.255710
vt 0.118920 0.252998
vt 0.694230 0.382617
vt 0.774384 0.407202
vt 0.821723 0.416344
vt 0.555891 0.417096
vt 0.614409 0.245550
vt 0.618312 0.433162
vt 0.052580 0.449453
vt 0.116407 0.422325
vt 0.170625 0.425834
vt 0.347915 0.514683
vt 0.393964 0.488508
vt 0.404720 0.662789
vt 0.084017 0.549548
vt 0.771865 0.520206
vt 0.794231 0.519213
vt 0.436284 0.661345
vt 0.590439 0.242940
vt 0.174091 0.540601
vt 0.685679 0.519592
vt 0.708902 0.519897
vt 0.126503 0.547851
vt 0.587219 0.533257
vt 0.552046 0.475890
vt 0.604211 0.494439
vt 0.772707 0.461103
vt 0.795367 0.475138
vt 0.712374 0.480269
vt 0.122548 0.512538
vt 0.348459 0.377707
vt 0.352924 0.412891
vt 0.326882 0.417031
vt 0.163533 0.512452
vt 0.647467 0.243987
vt 0.371228 0.373742
vt 0.382505 0.401890
vt 0.697431 0.484409
vt 0.080388 0.510730
vt 0.543765 0.519965
vn -0.924843 -0.343697 -0.162907
vn -0.924843 -0.343697 -0.162907
vn -0.924843 -0.343697 -0.162907
vn -0.830403 -0.176245 0.528553
vn -0.830403 -0.176245 0.528553
vn -0.830403 -0.176245 0.528553
vn 0.031798 0.061776 0.997583
vn 0.031798 0.061776 0.997583
vn 0.031798 0.061776 0.997583
vn 0.929850 0.151362 0.335363
vn 0.929850 0.151362 0.335363
vn 0.929850 0.151362 0.335363
vn 0.742941 -0.018255 -0.669108
vn 0.742941 -0.018255 -0.669108
vn 0.742941 -0.018255 -0.669108
vn 0.252511 -0.211073 -0.944292
vn 0.252511 -0.211073 -0.944292
vn 0.252511 -0.211073 -0.944292
vn -0.757162 -0.446028 -0.477246
vn -0.757162 -0.446028 -0.477246
vn -0.757162 -0.446028 -0.477246
vn 0.989931 0.063813 0.126349
vn 0.989931 0.063813 0.126349
vn 0.989931 0.063813 0.126349
vn -0.934159 -0.356805 -0.006181
vn -0.934159 -0.356805 -0.006181
vn -0.934159 -0.356805 -0.006181
vn -0.451800 -0.108914 0.885446
vn -0.451800 -0.108914 0.885446
vn -0.451800 -0.108914 0.885446
vn 0.044510 0.112286 0.992679
vn 0.044510 0.112286 0.992679
vn 0.044510 0.112286 0.992679
vn -0.666046 -0.105541 0.738406
vn -0.666046 -0.105541 0.738406
vn -0.666046 -0.105541 0.738406
vn -0.666046 -0.105541 0.738406
vn -0.612273 -0.185754 -0.768517
vn -0.612273 -0.185754 -0.768517
vn -0.612273 -0.185754 -0.768517
vn -0.981594 -0.180883 -0.061271
vn -0.981594 -0.180883 -0.061271
vn -0.981594 -0.180883 -0.061271
vn -0.981594 -0.180883 -0.061271
vn 0.905941 0.347677 0.241643
vn 0.905941 0.347677 0.241643
vn 0.905941 0.347677 0.241643
vn -0.060616 0.404999 0.912306
vn -0.060616 0.404999 0.912306
vn -0.060616 0.404999 0.912306
vn -0.820275 0.121314 0.558956
vn -0.820275 0.121314 0.558956
vn -0.820275 0.121314 0.558956
vn -0.820275 0.121314 0.558956
vn -0.428409 -0.334700 -0.839310
vn -0.428409 -0.334700 -0.839310
vn -0.428409 -0.334700 -0.839310
vn 0.769827 0.196742 -0.607173
vn 0.769827 0.196742 -0.607173
vn 0.769827 0.196742 -0.607173
vn 0.769827 0.196742 -0.607173
vn -0.980444 -0.109155 -0.163754
vn -0.980444 -0.109155 -0.163754
vn -0.980444 -0.109155 -0.163754
vn -0.980444 -0.109155 -0.163754
vn 0.214973 0.056551 0.974981
vn 0.214973 0.056551 0.974981
vn 0.214973 0.056551 0.974981
vn 0.471613 -0.224944 -0.852632
vn 0.471613 -0.224944 -0.852632
vn 0.471613 -0.224944 -0.852632
vn 0.289400 0.116081 -0.950144
vn 0.289400 0.116081 -0.950144
vn 0.289400 0.116081 -0.950144
vn 0.124973 0.025042 -0.991844
vn 0.124973 0.025042 -0.991844
vn 0.124973 0.025042 -0.991844
vn -0.503221 0.051887 -0.862599
vn -0.503221 0.051887 -0.862599
vn -0.503221 0.051887 -0.862599
vn 0.385190 -0.184807 -0.904143
vn 0.385190 -0.184807 -0.904143
vn 0.385190 -0.184807 -0.904143
vn 0.944595 0.258173 0.202699
vn 0.944595 0.258173 0.202699
vn 0.944595 0.258173 0.202699
vn 0.828052 0.137716 -0.543473
vn 0.828052 0.137716 -0.543473
vn 0.828052 0.137716 -0.543473
vn 0.828052 0.137716 -0.543473
vn 0.141705 0.052112 0.988536
vn 0.141705 0.052112 0.988536
vn 0.141705 0.052112 0.988536
vn 0.856134 0.404798 0.321205
vn 0.856134 0.404798 0.321205
vn 0.856134 0.404798 0.321205
vn -0.064489 0.400041 0.914226
vn -0.064489 0.400041 0.914226
vn -0.064489 0.400041 0.914226
vn 0.300725 -0.205007 -0.931417
vn 0.300725 -0.205007 -0.931417
vn 0.300725 -0.205007 -0.931417
vn 0.930473 0.305724 0.201872
vn 0.930473 0.305724 0.201872
vn 0.930473 0.305724 0.201872
vn 0.912878 -0.028590 -0.407230
vn 0.912878 -0.028590 -0.407230
vn 0.912878 -0.028590 -0.407230
s off
g polySurface13
usemtl lambert3SG
f 7/7/1 5/4/2 8/8/3
f 8/8/4 1/1/5 9/9/6
f 9/10/7 2/11/8 10/12/9
f 10/13/10 3/2/11 11/14/12
f 12/15/13 11/14/14 4/6/15
f 7/16/16 12/17/17 27/18/18
f 27/3/19 5/4/20 7/7/21
f 3/2/22 6/5/23 11/14/24
f 5/4/25 1/1/26 8/8/27
f 1/23/28 2/11/29 9/10/30
f 14/28/31 20/29/32 19/30/33
f 15/21/34 13/20/35 21/31/36 20/32/37
f 16/26/38 24/25/39 22/33/40
f 13/20/41 16/26/42 22/33/43 21/31/44
f 11/14/45 18/34/46 10/13/47
f 10/12/48 20/29/49 9/10/50
f 20/32/51 21/31/52 8/8/53 9/9/54
f 24/35/55 25/36/56 22/37/57
f 23/38/58 18/34/59 11/14/60 12/15/61
f 21/31/62 22/33/63 7/7/64 8/8/65
f 2/11/66 3/39/67 10/12/68
f 17/40/69 25/36/70 24/35/71
f 23/41/72 12/17/73 25/36/74
f 25/36/75 12/17/76 7/16/77
f 22/33/78 25/42/79 7/7/80
f 23/41/81 25/36/82 17/40/83
f 26/27/84 19/43/85 18/34/86
f 17/24/87 26/27/88 18/34/89 23/38/90
f 14/28/91 15/44/92 20/29/93
f 26/27/94 14/19/95 19/43/96
f 10/12/97 19/30/98 20/29/99
f 27/18/100 12/17/101 4/22/102
f 10/13/103 18/34/104 19/43/105
f 4/6/106 11/14/107 6/5/108
